<?xml version="1.0" standalone="no"?>
<!DOCTYPE svg PUBLIC "-//W3C//DTD SVG 20010904//EN"
 "http://www.w3.org/TR/2001/REC-SVG-20010904/DTD/svg10.dtd">
<svg version="1.0" xmlns="http://www.w3.org/2000/svg"
 width="668.000000pt" height="668.000000pt" viewBox="0 0 668.000000 668.000000"
 preserveAspectRatio="xMidYMid meet">
<metadata>
Created by potrace 1.14, written by Peter Selinger 2001-2017
</metadata>
<g transform="translate(0.000000,668.000000) scale(0.100000,-0.100000)"
fill="#000000" stroke="none">
<path d="M3169 6476 c-2 -2 -44 -6 -94 -10 -49 -3 -99 -7 -110 -10 -11 -2 -42
-7 -70 -10 -84 -12 -242 -45 -338 -70 -259 -69 -528 -185 -765 -328 -105 -63
-264 -172 -294 -202 -7 -6 -23 -19 -36 -27 -38 -27 -152 -130 -242 -219 -237
-236 -427 -502 -572 -800 -47 -96 -55 -115 -101 -225 -47 -114 -124 -371 -142
-475 -3 -19 -10 -53 -15 -75 -5 -22 -12 -62 -15 -90 -4 -27 -8 -61 -11 -75
-26 -149 -26 -607 0 -760 3 -14 7 -47 11 -75 3 -27 10 -68 15 -90 5 -22 12
-56 15 -75 11 -66 57 -235 82 -305 13 -38 26 -74 27 -80 11 -40 63 -167 108
-263 169 -366 459 -750 753 -998 39 -32 72 -62 75 -65 3 -3 48 -37 100 -76
326 -240 682 -409 1059 -502 64 -16 132 -32 151 -35 19 -3 46 -8 60 -11 42 -9
161 -25 235 -33 149 -15 584 -6 680 13 11 3 38 7 60 10 330 44 722 181 1040
364 304 174 575 403 823 695 108 127 268 372 354 541 127 248 241 583 274 799
3 22 8 44 10 47 2 4 7 34 10 66 3 32 8 65 10 73 11 33 19 197 19 385 0 217 -7
315 -30 450 -3 17 -8 48 -11 70 -3 22 -15 78 -26 125 -11 47 -21 94 -24 105
-5 29 -49 172 -68 225 -9 25 -24 65 -32 90 -30 83 -114 264 -175 375 -199 360
-492 701 -804 934 -190 142 -257 185 -438 280 -248 131 -611 258 -817 286 -25
3 -52 8 -60 10 -19 5 -61 12 -130 20 -30 4 -66 9 -80 11 -31 6 -466 14 -471
10z"/>
</g>
</svg>
